<svg width="66" height="17" viewBox="0 0 66 17" fill="none" xmlns="http://www.w3.org/2000/svg">
<path d="M5.85904 7.18935C5.85904 7.18935 9.50308 7.26053 15.0763 7.33171C20.5781 7.47407 27.9376 7.61644 35.2971 7.7588C42.6566 7.97235 50.0161 8.18589 55.5179 8.32825C61.0197 8.5418 64.7352 8.68416 64.7352 8.68416C64.8781 8.68416 65.021 8.82653 65.021 8.96889C65.021 9.11126 64.8781 9.25362 64.7352 9.25362C64.7352 9.25362 61.0911 9.18244 55.5179 9.11126C50.0161 8.96889 42.6566 8.82653 35.2971 8.68416C27.8661 8.47062 20.5066 8.25707 15.0048 8.04353C9.50308 7.82998 5.85904 7.7588 5.85904 7.7588C5.71614 7.7588 5.57324 7.61644 5.64469 7.47407C5.57324 7.33171 5.71614 7.18935 5.85904 7.18935Z" fill="#F9CB8B"/>
<path d="M13.9331 7.83001C11.7895 8.96892 9.43161 9.96546 7.00225 9.75192C4.64435 9.60956 2.5008 8.32828 0.428705 7.04701C1.50048 6.12165 2.92951 5.69455 4.28709 5.40983C5.93048 5.05392 7.64532 4.91155 9.36016 5.19628C11.0035 5.48101 12.6469 6.19283 13.7902 7.40292" fill="#F9CB8B"/>
<path d="M14.0045 7.97237C12.9327 8.54183 11.861 9.0401 10.6463 9.39601C9.50306 9.75192 8.28838 10.0366 7.07371 9.96546C6.43064 9.96546 5.85903 9.8231 5.21597 9.68074C4.64435 9.53837 4.07274 9.32483 3.50113 9.0401C2.3579 8.54183 1.35758 7.97237 0.285806 7.33173L0 7.18937L0.285806 6.97583C1.21468 6.12164 2.42935 5.69455 3.64403 5.40983C4.85871 5.1251 6.00193 4.91155 7.28806 4.91155C8.50274 4.84037 9.78887 4.98273 10.9321 5.40983C12.0753 5.83692 13.2185 6.47755 14.0045 7.4741L13.7902 7.68764C12.8613 6.76228 11.7895 6.19283 10.7177 5.9081C10.4319 5.83692 10.1461 5.76573 9.86032 5.69455C9.57451 5.62337 9.28871 5.62337 9.0029 5.55219C8.43129 5.48101 7.85967 5.48101 7.28806 5.48101C6.07339 5.48101 4.93016 5.69455 3.78693 5.97928C2.64371 6.19282 1.50048 6.61992 0.643064 7.33173L0.571613 6.90464C1.57194 7.54528 2.57226 8.18592 3.64403 8.68419C4.71581 9.18246 5.85903 9.60955 7.00226 9.68074C8.14548 9.75192 9.36016 9.53837 10.5034 9.18246C11.6466 8.82655 12.7184 8.32828 13.7902 7.75883L14.0045 7.97237Z" fill="#F9CB8B"/>
<path d="M21.2211 8.11475C19.4348 7.75884 17.7914 6.76229 16.5767 5.33865C15.4335 3.91502 14.719 2.13547 14.719 0.284744C16.0766 0.355926 17.3627 0.925381 18.4345 1.77956C19.0776 2.34902 19.6492 2.98965 20.0064 3.77265C20.6495 4.98275 21.2211 6.76229 21.2211 8.11475Z" fill="#F9CB8B"/>
<path d="M21.2211 8.25709C20.2922 8.04355 19.4348 7.68764 18.6489 7.26055C17.8629 6.76227 17.1484 6.19282 16.5053 5.481C16.2195 5.12509 15.9337 4.76918 15.7193 4.34209C15.505 3.915 15.2906 3.48791 15.0763 3.06082C14.719 2.20664 14.5761 1.28127 14.5047 0.284727V0H14.7905C15.7908 0.0711818 16.7197 0.284727 17.5771 0.783C18.4345 1.21009 19.2205 1.85073 19.7921 2.70491C20.0064 2.84727 20.1493 3.06082 20.2208 3.27436C20.3637 3.48791 20.4351 3.70146 20.5066 3.915C20.721 4.34209 20.8639 4.76918 21.0068 5.26746C21.2926 6.19282 21.4355 7.11818 21.4355 8.11473H21.1497C21.0068 7.18936 20.7924 6.33518 20.4351 5.481C20.2922 5.05391 20.1493 4.62682 19.935 4.19973C19.8635 3.98618 19.7206 3.77264 19.6492 3.63027C19.5777 3.41673 19.4348 3.27436 19.2919 3.06082C18.7918 2.349 18.0772 1.77955 17.3627 1.35245C16.5768 0.925364 15.7193 0.640636 14.8619 0.569455L15.1477 0.284727C15.1477 2.06427 15.7193 3.84382 16.8626 5.26746C17.4342 5.97927 18.1487 6.54873 18.8632 7.047C19.2205 7.26055 19.6492 7.47409 20.0779 7.61646C20.5066 7.75882 20.9353 7.90118 21.364 7.97236L21.2211 8.25709Z" fill="#F9CB8B"/>
<path d="M28.9379 8.32828C27.1516 7.97237 25.5082 6.97582 24.2935 5.55219C23.0789 4.12855 22.4358 2.349 22.4358 0.498276C23.7934 0.569458 25.0795 1.13891 26.1513 1.99309C26.7943 2.56255 27.366 3.20319 27.7232 3.98619C28.3663 5.19628 28.9379 6.97582 28.9379 8.32828Z" fill="#F9CB8B"/>
<path d="M28.9379 8.47062C28.009 8.25708 27.1516 7.90117 26.3656 7.47408C25.5797 6.9758 24.8652 6.40635 24.2221 5.69453C23.9363 5.33862 23.6505 4.98271 23.4361 4.55562C23.2218 4.12853 23.0074 3.70144 22.7931 3.27435C22.4358 2.42017 22.2929 1.4948 22.2214 0.498259V0.213531H22.5072C23.5076 0.284713 24.4364 0.498259 25.2939 0.996531C26.1513 1.42362 26.9372 2.06426 27.5089 2.91844C27.6518 3.13199 27.7947 3.34553 27.9376 3.55908C28.0805 3.77262 28.1519 3.98617 28.2234 4.19971C28.4377 4.6268 28.5806 5.05389 28.7235 5.55217C29.0093 6.47753 29.1522 7.40289 29.1522 8.39944H28.8664C28.7235 7.47408 28.5092 6.61989 28.1519 5.76571C28.009 5.33862 27.8661 4.91153 27.6518 4.48444C27.5803 4.2709 27.4374 4.05735 27.366 3.91499C27.2945 3.70144 27.1516 3.55908 27.0087 3.34553C26.5085 2.63371 25.794 2.06426 25.0795 1.63717C24.2935 1.21008 23.4361 0.92535 22.5787 0.854168L22.8645 0.569441C22.8645 2.34899 23.4361 4.12853 24.5793 5.55217C25.151 6.26399 25.8655 6.83344 26.58 7.33171C26.9372 7.54526 27.366 7.7588 27.7947 7.90117C28.2234 8.04353 28.6521 8.18589 29.0808 8.25708L28.9379 8.47062Z" fill="#F9CB8B"/>
<path d="M36.869 8.47064C35.0827 8.11473 33.4393 7.11819 32.2247 5.69455C31.0814 4.27091 30.3669 2.49137 30.3669 0.64064C31.7245 0.711822 33.0821 1.28128 34.0824 2.13546C34.7255 2.70491 35.2971 3.34555 35.6543 4.12855C36.226 5.33864 36.7976 7.11819 36.869 8.47064Z" fill="#F9CB8B"/>
<path d="M36.7976 8.613C35.8687 8.39946 35.0113 8.04355 34.2253 7.61646C33.4393 7.11818 32.7248 6.54873 32.0817 5.83691C31.7959 5.481 31.5101 5.12509 31.2958 4.698C31.0814 4.27091 30.8671 3.84382 30.6527 3.41673C30.2955 2.56255 30.1526 1.63718 30.0811 0.640639V0.355911H30.3669C31.3672 0.427093 32.2961 0.640639 33.1535 1.13891C34.0109 1.566 34.7969 2.20664 35.3685 3.06082C35.5114 3.27437 35.6543 3.48791 35.7972 3.70146C35.9401 3.915 36.0116 4.12855 36.083 4.34209C36.2974 4.76918 36.4403 5.19628 36.5832 5.69455C36.869 6.61991 37.0119 7.54528 37.0119 8.54182H36.7261C36.5832 7.61646 36.3688 6.76228 36.0116 5.90809C35.8687 5.40982 35.7258 4.98273 35.5114 4.55564C35.44 4.34209 35.2971 4.12855 35.2256 3.98618C35.1542 3.77264 35.0113 3.63028 34.8684 3.41673C34.3682 2.70491 33.6537 2.13546 32.9392 1.70837C32.1532 1.28128 31.2958 0.996548 30.4384 0.925366L30.7242 0.640639C30.7242 2.42018 31.2958 4.19973 32.439 5.62337C33.0106 6.33519 33.7251 6.90464 34.4397 7.40291C34.7969 7.61646 35.2256 7.83 35.6543 7.97237C36.083 8.11473 36.5117 8.25709 36.9405 8.32828L36.7976 8.613Z" fill="#F9CB8B"/>
<path d="M44.5858 8.68419C42.7995 8.32828 41.1561 7.33173 39.9415 5.9081C38.7982 4.48446 38.0837 2.70491 38.0837 0.854187C39.4413 0.925369 40.7274 1.49482 41.7992 2.34901C42.4423 2.84728 43.0139 3.5591 43.3711 4.27091C43.9428 5.55219 44.5144 7.33173 44.5858 8.68419Z" fill="#F9CB8B"/>
<path d="M44.5144 8.82653C43.5855 8.61299 42.7281 8.25708 41.9421 7.82999C41.1561 7.33172 40.4416 6.76226 39.7986 6.05044C39.5128 5.69453 39.2269 5.33862 39.0126 4.91153C38.7982 4.48444 38.5839 4.05735 38.3695 3.63026C38.0123 2.77608 37.8694 1.85072 37.7979 0.85417V0.569443H38.0837C39.084 0.640625 40.0129 0.85417 40.8703 1.35244C41.7277 1.77953 42.5137 2.42017 43.0853 3.27435C43.2282 3.4879 43.3711 3.70144 43.514 3.91499C43.6569 4.12853 43.7284 4.34208 43.7998 4.55562C44.0142 4.98272 44.1571 5.40981 44.3 5.90808C44.5858 6.83344 44.7287 7.75881 44.7287 8.75535H44.4429C44.3 7.82999 44.0857 6.97581 43.7284 6.12162C43.5855 5.69453 43.4426 5.26744 43.2282 4.84035C43.1568 4.62681 43.0139 4.41326 42.9424 4.2709C42.871 4.05735 42.7281 3.91499 42.5852 3.70144C42.085 2.98962 41.3705 2.42017 40.656 1.99308C39.87 1.56599 39.0126 1.28126 38.1552 1.21008L38.441 0.925352C38.441 2.7049 39.0126 4.48444 40.1558 5.90808C40.7274 6.6199 41.4419 7.18935 42.1565 7.68762C42.5137 7.90117 42.9424 8.11472 43.3711 8.25708C43.7998 8.39944 44.2286 8.54181 44.6573 8.61299L44.5144 8.82653Z" fill="#F9CB8B"/>
<path d="M21.2211 8.25708C19.4348 8.61299 17.7915 9.60953 16.5768 11.0332C15.4336 12.4568 14.719 14.2364 14.719 16.0871C16.0766 16.0159 17.3627 15.4464 18.4345 14.5923C19.0776 14.0228 19.6492 13.3822 20.0065 12.5992C20.6495 11.4603 21.2211 9.68072 21.2211 8.25708Z" fill="#F9CB8B"/>
<path d="M21.2926 8.47062C20.8639 8.54181 20.4352 8.68417 20.0065 8.82653C19.5778 8.9689 19.149 9.18244 18.7918 9.39599C18.0058 9.89426 17.3628 10.4637 16.7911 11.1755C15.6479 12.5992 15.0763 14.3787 15.0763 16.1583L14.7905 15.8735C15.6479 15.8024 16.5768 15.5176 17.2913 15.0905C18.0773 14.6634 18.7203 14.094 19.2205 13.3822C19.3634 13.2398 19.4348 13.0263 19.5778 12.8127C19.6492 12.5992 19.7921 12.3856 19.8636 12.2433C20.0779 11.8162 20.2208 11.3891 20.3637 10.962C20.6495 10.1078 20.9353 9.25363 21.0782 8.32826H21.364C21.4355 9.32481 21.2211 10.2502 20.9353 11.1755C20.7924 11.6026 20.6495 12.1009 20.4352 12.528C20.3637 12.7415 20.2208 12.9551 20.1494 13.1686C20.0065 13.3822 19.935 13.5957 19.7207 13.8093C19.149 14.5923 18.3631 15.2329 17.5057 15.7312C16.6482 16.1583 15.6479 16.443 14.719 16.5142H14.4332V16.2294C14.4332 15.3041 14.6476 14.3787 15.0048 13.4534C15.1478 13.0263 15.3621 12.5992 15.6479 12.1721C15.8623 11.745 16.1481 11.3891 16.4339 11.0332C17.0055 10.3214 17.72 9.68072 18.5774 9.25363C19.3634 8.75535 20.2923 8.39944 21.1497 8.25708L21.2926 8.47062Z" fill="#F9CB8B"/>
<path d="M28.9379 8.25708C27.1516 8.61299 25.5082 9.60953 24.2935 11.0332C23.1503 12.4568 22.4358 14.2364 22.4358 16.0871C23.7934 16.0159 25.0795 15.4464 26.1513 14.5923C26.7943 14.0228 27.366 13.3822 27.7232 12.5992C28.3663 11.4603 28.9379 9.68072 28.9379 8.25708Z" fill="#F9CB8B"/>
<path d="M29.0093 8.47062C28.5806 8.54181 28.1519 8.68417 27.7232 8.82653C27.2945 8.9689 26.8658 9.18244 26.5085 9.39599C25.7226 9.89426 25.0795 10.4637 24.5079 11.1755C23.3647 12.5992 22.7931 14.3787 22.7931 16.1583L22.5072 15.8735C23.3647 15.8024 24.2935 15.5176 25.0081 15.0905C25.794 14.6634 26.4371 14.094 26.9372 13.3822C27.0801 13.2398 27.1516 13.0263 27.2945 12.8127C27.366 12.5992 27.5089 12.3856 27.5803 12.2433C27.7947 11.8162 27.9376 11.3891 28.0805 10.962C28.3663 10.1078 28.6521 9.25363 28.795 8.32826H29.0808C29.1522 9.32481 28.9379 10.2502 28.6521 11.1755C28.5092 11.6026 28.3663 12.1009 28.1519 12.528C28.0805 12.7415 27.9376 12.9551 27.8661 13.1686C27.7232 13.3822 27.6518 13.5957 27.4374 13.8093C26.8658 14.5923 26.0798 15.2329 25.2224 15.7312C24.365 16.1583 23.3647 16.443 22.4358 16.5142H22.15V16.2294C22.15 15.3041 22.3643 14.3787 22.7216 13.4534C22.8645 13.0263 23.0789 12.5992 23.3647 12.1721C23.579 11.745 23.8648 11.3891 24.1506 11.0332C24.7222 10.3214 25.4368 9.68072 26.2942 9.25363C27.0801 8.75535 28.009 8.39944 28.8664 8.25708L29.0093 8.47062Z" fill="#F9CB8B"/>
<path d="M36.869 8.25708C35.0827 8.61299 33.4394 9.60953 32.2247 11.0332C31.0815 12.4568 30.3669 14.2364 30.3669 16.0871C31.7245 16.0159 33.0106 15.4464 34.0824 14.5923C34.7255 14.0228 35.2971 13.3822 35.6544 12.5992C36.226 11.4603 36.7976 9.68072 36.869 8.25708Z" fill="#F9CB8B"/>
<path d="M36.869 8.47062C36.4403 8.54181 36.0116 8.68417 35.5829 8.82653C35.1542 8.9689 34.7255 9.18244 34.3682 9.39599C33.5823 9.89426 32.9392 10.4637 32.3676 11.1755C31.2244 12.5992 30.6527 14.3787 30.6527 16.1583L30.3669 15.8735C31.2244 15.8024 32.1532 15.5176 32.8677 15.0905C33.6537 14.6634 34.2968 14.094 34.7969 13.3822C34.9398 13.2398 35.0113 13.0263 35.1542 12.8127C35.2256 12.5992 35.3685 12.3856 35.44 12.2433C35.6544 11.8162 35.7973 11.3891 35.9402 10.962C36.226 10.1078 36.5118 9.25363 36.6547 8.32826H36.9405C37.0119 9.32481 36.7976 10.2502 36.5118 11.1755C36.3689 11.6026 36.226 12.1009 36.0116 12.528C35.9402 12.7415 35.7973 12.9551 35.7258 13.1686C35.5829 13.3822 35.5115 13.5957 35.2971 13.8093C34.7255 14.5923 33.9395 15.2329 33.0821 15.7312C32.2247 16.1583 31.2244 16.443 30.2955 16.5142H30.0097V16.2294C30.0097 15.3041 30.224 14.3787 30.5813 13.4534C30.7242 13.0263 30.9385 12.5992 31.2244 12.1721C31.4387 11.745 31.7245 11.3891 32.0103 11.0332C32.5819 10.3214 33.2964 9.68072 34.1539 9.25363C34.9398 8.75535 35.8687 8.39944 36.7261 8.25708L36.869 8.47062Z" fill="#F9CB8B"/>
<path d="M44.5858 8.47063C42.7995 8.82654 41.1561 9.82308 39.9414 11.2467C38.7982 12.6704 38.0837 14.4499 38.0837 16.3006C39.4413 16.2294 40.7274 15.66 41.7992 14.8058C42.4422 14.2364 43.0138 13.5957 43.3711 12.8127C43.9427 11.6738 44.5143 9.82308 44.5858 8.47063Z" fill="#F9CB8B"/>
<path d="M44.5858 8.61299C44.1571 8.68417 43.7284 8.82654 43.2996 8.9689C42.8709 9.11126 42.4422 9.32481 42.085 9.53835C41.299 10.0366 40.6559 10.6061 40.0843 11.3179C38.9411 12.7415 38.3695 14.5211 38.3695 16.3006L38.0837 16.0159C38.9411 15.9447 39.87 15.66 40.5845 15.2329C41.3705 14.8058 42.0135 14.2364 42.5137 13.5245C42.6566 13.3822 42.728 13.1686 42.8709 12.9551C42.9424 12.7415 43.0853 12.528 43.1567 12.3856C43.3711 11.9585 43.514 11.5314 43.6569 11.1044C43.9427 10.2502 44.2285 9.39599 44.3714 8.47063H44.6572C44.7287 9.46717 44.5143 10.3925 44.2285 11.3179C44.0856 11.745 43.9427 12.2433 43.7284 12.6704C43.6569 12.8839 43.514 13.0974 43.4426 13.311C43.2997 13.5245 43.2282 13.7381 43.0138 13.9516C42.4422 14.7346 41.6563 15.3753 40.7988 15.8735C39.9414 16.3006 38.9411 16.5854 38.0122 16.6565H37.7264V16.3718C37.7264 15.4464 37.9408 14.5211 38.298 13.5957C38.4409 13.1686 38.6553 12.7415 38.9411 12.3144C39.1555 11.8874 39.4413 11.5314 39.7271 11.1755C40.2987 10.4637 41.0132 9.82308 41.8706 9.39599C42.6566 8.89772 43.5855 8.54181 44.4429 8.39944L44.5858 8.61299Z" fill="#F9CB8B"/>
</svg>
