<svg width="30" height="30" viewBox="0 0 30 30" fill="none" xmlns="http://www.w3.org/2000/svg">
<path d="M15 0.833344C12.1981 0.833344 9.45914 1.6642 7.12944 3.22086C4.79974 4.77751 2.98396 6.99004 1.91172 9.57866C0.839482 12.1673 0.558934 15.0157 1.10556 17.7638C1.65218 20.5119 3.00143 23.0361 4.98267 25.0174C6.96391 26.9986 9.48817 28.3478 12.2362 28.8945C14.9843 29.4411 17.8327 29.1605 20.4214 28.0883C23.01 27.0161 25.2225 25.2003 26.7792 22.8706C28.3358 20.5409 29.1667 17.8019 29.1667 15C29.1667 13.1396 28.8003 11.2974 28.0883 9.57866C27.3764 7.85988 26.3329 6.29816 25.0174 4.98266C23.7019 3.66717 22.1401 2.62366 20.4214 1.91172C18.7026 1.19978 16.8604 0.833344 15 0.833344ZM18.8392 16.8275C18.972 16.9592 19.0774 17.1159 19.1493 17.2885C19.2212 17.4612 19.2582 17.6463 19.2582 17.8333C19.2582 18.0204 19.2212 18.2055 19.1493 18.3782C19.0774 18.5508 18.972 18.7075 18.8392 18.8392C18.7075 18.972 18.5508 19.0774 18.3782 19.1493C18.2055 19.2212 18.0204 19.2582 17.8334 19.2582C17.6463 19.2582 17.4612 19.2212 17.2885 19.1493C17.1159 19.0774 16.9592 18.972 16.8275 18.8392L15 16.9975L13.1725 18.8392C13.0408 18.972 12.8841 19.0774 12.7115 19.1493C12.5389 19.2212 12.3537 19.2582 12.1667 19.2582C11.9797 19.2582 11.7945 19.2212 11.6219 19.1493C11.4492 19.0774 11.2925 18.972 11.1609 18.8392C11.0281 18.7075 10.9227 18.5508 10.8508 18.3782C10.7788 18.2055 10.7418 18.0204 10.7418 17.8333C10.7418 17.6463 10.7788 17.4612 10.8508 17.2885C10.9227 17.1159 11.0281 16.9592 11.1609 16.8275L13.0025 15L11.1609 13.1725C10.8941 12.9057 10.7442 12.5439 10.7442 12.1667C10.7442 11.7894 10.8941 11.4276 11.1609 11.1608C11.4276 10.8941 11.7894 10.7442 12.1667 10.7442C12.5439 10.7442 12.9058 10.8941 13.1725 11.1608L15 13.0025L16.8275 11.1608C17.0943 10.8941 17.4561 10.7442 17.8334 10.7442C18.2106 10.7442 18.5724 10.8941 18.8392 11.1608C19.1059 11.4276 19.2558 11.7894 19.2558 12.1667C19.2558 12.5439 19.1059 12.9057 18.8392 13.1725L16.9975 15L18.8392 16.8275Z" fill="#583D72"/>
</svg>
