<?xml version="1.0" encoding="utf-8"?>
<!-- Generator: Adobe Illustrator 24.0.0, SVG Export Plug-In . SVG Version: 6.00 Build 0)  -->
<svg version="1.1" id="Capa_1" xmlns="http://www.w3.org/2000/svg" xmlns:xlink="http://www.w3.org/1999/xlink" x="0px" y="0px"
	 viewBox="0 0 500 500" style="enable-background:new 0 0 500 500;" xml:space="preserve">
<style type="text/css">
	.st0{fill:#F8CA8A;}
	.st1{fill:#B47128;}
	.st2{display:none;}
	.st3{display:inline;fill:#BA7427;}
	.st4{display:inline;fill:#F9F7F8;}
	.st5{fill:#F9F7F8;}
	.st6{opacity:0.3;fill:#F8CA8A;}
</style>
<g>
	<g>
		<path class="st0" d="M443.3,144.1c0-43-34.8-77.8-77.8-77.8c-10.6,0-20.7,2.1-29.9,6c0,0,0,0,0,0C258.4,96.8,203.1,86.8,175,77.6
			c-6.4-3.9-13.4-6.9-20.9-8.8l0,0h0c-6.2-1.6-12.7-2.5-19.4-2.5c-43,0-77.8,34.8-77.8,77.8c0,35,23.1,64.6,55,74.4
			c0,58.7,0,123.8,0,157c0,63.1,276.5,60.5,276.5,0c0-33.2,0-98.3,0-157C420.2,208.7,443.3,179.1,443.3,144.1z"/>
	</g>
	<g>
		<path class="st1" d="M248,431.5c-36.8,0-71.1-4.2-96.5-11.9c-40.7-12.3-49.3-30.8-49.3-44.1V225.3c-33.2-13.2-55-45-55-81.2
			c0-48.2,39.2-87.4,87.4-87.4c7.4,0,14.7,0.9,21.9,2.8l1,0.3c7.5,2,14.8,5.1,21.5,9.1c25.7,8.2,78.8,18,153.3-5.5
			c10.6-4.3,21.7-6.6,33.2-6.6c48.2,0,87.4,39.2,87.4,87.4c0,36.3-21.8,68-55,81.2v150.2C398,416.8,317.2,431.5,248,431.5z
			 M134.7,76c-37.5,0-68.1,30.5-68.1,68.1c0,30.1,19.3,56.3,48.1,65.1l6.8,2.1v164.2c0,9.5,12.9,18.8,35.5,25.6
			c23.6,7.1,55.9,11.1,90.9,11.1c78.2,0,130.7-19,130.7-36.7V211.3l6.8-2.1c28.8-8.8,48.1-35,48.1-65.1c0-37.5-30.5-68.1-68.1-68.1
			c-9.1,0-17.9,1.8-26.2,5.2l-1,0.4c-80.6,25.6-138.8,14.2-166.3,5.2l-1.1-0.3l-1-0.6c-5.7-3.5-11.9-6.1-18.3-7.7l-0.3-0.1
			C145.9,76.7,140.3,76,134.7,76z"/>
	</g>
</g>
<g class="st2">
	<circle class="st3" cx="184.2" cy="211.7" r="27.8"/>
	<path class="st4" d="M204.5,211.7c0,8.3-6.7,15-15,15c-8.3,0-15-6.7-15-15c0-8.3,6.7-15,15-15C197.7,196.7,204.5,203.4,204.5,211.7
		z"/>
	<path class="st3" d="M279.5,211.7c0,15.4,12.5,27.8,27.8,27.8c15.4,0,27.8-12.5,27.8-27.8c0-15.4-12.5-27.8-27.8-27.8
		C292,183.9,279.5,196.4,279.5,211.7z"/>
	<path class="st4" d="M287.1,211.7c0,8.3,6.7,15,15,15c8.3,0,15-6.7,15-15c0-8.3-6.7-15-15-15C293.8,196.7,287.1,203.4,287.1,211.7z
		"/>
</g>
<g class="st2">
	<path class="st4" d="M231.6,285.3c3.4-8.8,6.2-16.2,0.2-22.4c-6.3-6.5-19.8-2.9-37.5,7.2C194.8,280.1,222.6,289.9,231.6,285.3z"/>
</g>
<g class="st2">
	<path class="st4" d="M262.8,286.3c-3.4-8.8-6.2-16.2-0.2-22.4c6.3-6.5,19.8-2.9,37.5,7.2C299.5,281.1,271.7,290.9,262.8,286.3z"/>
</g>
<g class="st2">
	<path class="st3" d="M158.4,297.8c14.5-10.9,30.2-21,46.7-28.6c6.6-3,22.2-10.3,25.9,0c3.3,9.2-7,21.7-12.9,27.8
		c-3.6,3.8,2.1,9.5,5.7,5.7c7.8-8.1,15-18.7,15.7-30.2c0.9-13.7-11.8-17.9-22.8-15.8c-14.1,2.7-27.6,11.2-39.6,18.6
		c-7.8,4.8-15.4,10-22.7,15.5C150.2,293.9,154.2,301,158.4,297.8L158.4,297.8z"/>
</g>
<g class="st2">
	<path class="st3" d="M338.7,290.9c-18.1-13.6-39-28.2-61.1-33.8c-11.7-3-22.4,0.9-24,14.1c-1.4,11.4,8.3,24,15.7,31.7
		c3.6,3.8,9.3-1.9,5.7-5.7c-6.5-6.7-13.5-16.3-13.3-26c0.3-12.7,19-5,24.9-2.5c17.1,7.3,33.3,18.1,48.2,29.2
		C338.8,301,342.8,293.9,338.7,290.9L338.7,290.9z"/>
</g>
<path class="st5" d="M421.3,103.8c-13.5-18.7-35.4-30.9-60.2-30.9c-9.8,0-19.3,1.9-28.3,5.6c-63.9,20.2-131.2,13.6-159.1,4.6
	c-7.4-4-31.6-8.8-37.9-8.8c-39.4,0-69.1,31.8-69.1,74.1c0,33,26.6,56.7,54,66.3c0,29.3,0,66.4,0,98.3c0,6,0,11.8,0,17.3
	c0,17.6,0,32.6,0,42.3c0,10.5,7,25,40.5,35.1c21.9,6.5,51.7,10.1,83.9,10.1c64.9,0,134.7-14.7,134.7-47.1c0-12.7-0.3-34.1-0.6-58.8
	c-0.2-13.5-0.4-27.6-0.5-41.7c-0.2-19.2-0.4-38.3-0.4-55.1c14.8-5.2,29.5-14.6,40.2-26.8c10.2-11.6,16.8-25.7,16.8-41.3
	C435.2,130.8,430,115.9,421.3,103.8z M422.8,162.4c-7.4,21.3-29.3,37.9-50.9,44.5l-3.4,1v3.6c0,20.9,0.3,45.6,0.6,69.9
	c0.1,10.4,0.3,20.7,0.4,30.6c0.3,24.7,0.6,46,0.6,58.7c0,21-54.9,37.4-125.1,37.4c-31.3,0-60.2-3.5-81.1-9.7
	c-12.6-3.7-33.6-12.1-33.6-25.8c0-8.9,0-22.2,0-38c0-6.8,0-14.1,0-21.6c0-33.3,0-72,0-101.8v-3.6l-3.4-1
	c-25.2-7.7-50.6-28.7-50.6-58.2c0-37.3,25-64.4,59.5-64.4c5.5,0,28.8,4.9,33.4,7.7l0.5,0.3l0.5,0.2c28.8,9.4,99.2,16.6,165.6-4.5
	l0.5-0.2c7.9-3.3,16.2-5,24.8-5c30.9,0,56.8,21.9,63,50.9c0.9,4.4,1.4,8.9,1.4,13.5C425.5,152.3,424.5,157.5,422.8,162.4
	C422.8,162.4,422.8,162.4,422.8,162.4z"/>
<path class="st6" d="M370.1,370.7c0,21-54.9,37.4-125.1,37.4c-31.3,0-60.2-3.5-81.1-9.7c-12.6-3.7-33.6-12.1-33.6-25.8
	c0-8.9,0-22.2,0-38C155.4,345.2,183,351,212,351c62.2,0,118.2-26.8,157-69.5c0.1,10.4,0.3,20.7,0.4,30.6
	C369.8,336.8,370.1,358.1,370.1,370.7z"/>
<g>
	<path class="st5" d="M339.9,247.8c0,12.8,0,25.7,0,38.5c-0.1,28.2-21.4,49.4-49.5,49.5c-25.7,0.1-51.3,0.1-77,0
		c-28.2-0.1-49.5-21.2-49.6-49.4c-0.1-25.8-0.1-51.6,0-77.4c0.1-28,21.3-49.2,49.3-49.3c25.8-0.1,51.6-0.1,77.4,0
		c28.1,0.1,49.3,21.4,49.4,49.6C339.9,222.1,339.9,234.9,339.9,247.8z M324.1,247.7c0-13.2,0-26.5,0-39.7
		c0-17.3-14.1-32.4-31.3-32.6c-27.4-0.4-54.8-0.3-82.1,0c-16.5,0.2-31,14.6-31.2,31c-0.4,27.5-0.4,55,0,82.5
		c0.2,17,15.4,31.1,32.4,31.1c26.6,0,53.2,0,79.8,0c17.7,0,32.4-14.8,32.4-32.6C324.1,274.2,324.1,260.9,324.1,247.7z"/>
	<path class="st5" d="M297.2,247.8c-0.1,24.9-21,45.6-45.8,45.4c-24.7-0.2-45.2-20.9-45.2-45.6c0.1-24.9,21-45.6,45.8-45.4
		C276.8,202.5,297.3,223.1,297.2,247.8z M222.1,247.9c0.2,16.2,13.5,29.5,29.7,29.5c16.2,0,29.9-13.8,29.7-29.9
		c-0.2-16.2-13.5-29.5-29.7-29.5C235.6,218,221.9,231.8,222.1,247.9z"/>
	<path class="st5" d="M299,211.9c-6.4-0.1-11.4-5.2-11.3-11.6c0.1-6.4,5.3-11.4,11.7-11.2c6.1,0.2,11.2,5.3,11.2,11.4
		C310.6,206.8,305.2,212,299,211.9z"/>
</g>
</svg>
