<svg width="29" height="32" viewBox="0 0 29 32" fill="none" xmlns="http://www.w3.org/2000/svg">
<path fill-rule="evenodd" clip-rule="evenodd" d="M18.3134 7.48472C18.4316 7.3662 18.572 7.27217 18.7266 7.20802C18.8812 7.14386 19.047 7.11084 19.2144 7.11084C19.3818 7.11084 19.5475 7.14386 19.7021 7.20802C19.8567 7.27217 19.9972 7.3662 20.1154 7.48472L27.7511 15.1205C27.8697 15.2387 27.9637 15.3791 28.0278 15.5337C28.092 15.6883 28.125 15.8541 28.125 16.0215C28.125 16.1889 28.092 16.3546 28.0278 16.5092C27.9637 16.6638 27.8697 16.8043 27.7511 16.9225L20.1154 24.5582C19.8764 24.7972 19.5523 24.9315 19.2144 24.9315C18.8764 24.9315 18.5523 24.7972 18.3134 24.5582C18.0744 24.3193 17.9402 23.9952 17.9402 23.6572C17.9402 23.3193 18.0744 22.9952 18.3134 22.7562L25.0506 16.0215L18.3134 9.28675C18.1948 9.16854 18.1008 9.0281 18.0367 8.87349C17.9725 8.71888 17.9395 8.55313 17.9395 8.38573C17.9395 8.21834 17.9725 8.05259 18.0367 7.89798C18.1008 7.74337 18.1948 7.60293 18.3134 7.48472Z" fill="#583D72"/>
<path fill-rule="evenodd" clip-rule="evenodd" d="M7.76074 16.0215C7.76074 15.684 7.89482 15.3603 8.13349 15.1216C8.37215 14.8829 8.69585 14.7489 9.03337 14.7489H25.5775C25.915 14.7489 26.2387 14.8829 26.4774 15.1216C26.716 15.3603 26.8501 15.684 26.8501 16.0215C26.8501 16.359 26.716 16.6827 26.4774 16.9214C26.2387 17.16 25.915 17.2941 25.5775 17.2941H9.03337C8.69585 17.2941 8.37215 17.16 8.13349 16.9214C7.89482 16.6827 7.76074 16.359 7.76074 16.0215ZM1.39762 31.293C1.0601 31.293 0.736407 31.1589 0.497743 30.9202C0.25908 30.6816 0.125 30.3579 0.125 30.0203V2.02262C0.125 1.6851 0.25908 1.36141 0.497743 1.12274C0.736407 0.88408 1.0601 0.75 1.39762 0.75C1.73514 0.75 2.05884 0.88408 2.2975 1.12274C2.53617 1.36141 2.67025 1.6851 2.67025 2.02262V30.0203C2.67025 30.3579 2.53617 30.6816 2.2975 30.9202C2.05884 31.1589 1.73514 31.293 1.39762 31.293Z" fill="#583D72"/>
</svg>
