<svg width="28" height="31" viewBox="0 0 28 31" fill="none" xmlns="http://www.w3.org/2000/svg">
<path fill-rule="evenodd" clip-rule="evenodd" d="M9.81164 23.8082C9.69342 23.9268 9.55298 24.0208 9.39837 24.0849C9.24376 24.1491 9.07801 24.1821 8.91062 24.1821C8.74322 24.1821 8.57748 24.1491 8.42286 24.0849C8.26825 24.0208 8.12782 23.9268 8.0096 23.8082L0.373855 16.1725C0.25534 16.0543 0.161313 15.9139 0.0971563 15.7592C0.0329998 15.6046 -2.49848e-05 15.4389 -2.49702e-05 15.2715C-2.49556e-05 15.1041 0.0329998 14.9383 0.0971564 14.7837C0.161313 14.6291 0.25534 14.4887 0.373855 14.3705L8.0096 6.73472C8.24857 6.49576 8.57267 6.36151 8.91062 6.36151C9.24857 6.36151 9.57267 6.49576 9.81164 6.73472C10.0506 6.97369 10.1849 7.29779 10.1849 7.63574C10.1849 7.97369 10.0506 8.29779 9.81164 8.53676L3.07436 15.2715L9.81164 22.0062C9.93015 22.1244 10.0242 22.2649 10.0883 22.4195C10.1525 22.5741 10.1855 22.7398 10.1855 22.9072C10.1855 23.0746 10.1525 23.2404 10.0883 23.395C10.0242 23.5496 9.93015 23.69 9.81164 23.8082Z" fill="#583D72"/>
<path fill-rule="evenodd" clip-rule="evenodd" d="M20.3643 15.2715C20.3643 15.609 20.2302 15.9327 19.9915 16.1714C19.7529 16.41 19.4292 16.5441 19.0916 16.5441L2.54752 16.5441C2.21 16.5441 1.8863 16.41 1.64764 16.1714C1.40897 15.9327 1.2749 15.609 1.2749 15.2715C1.2749 14.934 1.40898 14.6103 1.64764 14.3716C1.8863 14.1329 2.21 13.9989 2.54752 13.9989L19.0916 13.9989C19.4292 13.9989 19.7529 14.1329 19.9915 14.3716C20.2302 14.6103 20.3643 14.934 20.3643 15.2715ZM26.7274 -3.92595e-06C27.0649 -3.89645e-06 27.3886 0.134073 27.6273 0.372738C27.8659 0.611401 28 0.935099 28 1.27262L28 29.2703C28 29.6079 27.8659 29.9316 27.6273 30.1702C27.3886 30.4089 27.0649 30.543 26.7274 30.543C26.3899 30.543 26.0662 30.4089 25.8275 30.1702C25.5888 29.9316 25.4548 29.6079 25.4548 29.2703L25.4548 1.27262C25.4548 0.935098 25.5888 0.6114 25.8275 0.372738C26.0662 0.134073 26.3899 -3.95546e-06 26.7274 -3.92595e-06Z" fill="#583D72"/>
</svg>
